<svg width="32" height="32" viewBox="0 0 32 32" fill="none" xmlns="http://www.w3.org/2000/svg">
  <rect width="32" height="32" rx="8" fill="#1a1a1a"/>
  <path d="M20.5 10.2c0-0.8-0.3-1.5-0.8-2.1-0.5-0.6-1.2-1-2-1.3-0.8-0.3-1.7-0.4-2.7-0.4-1.3 0-2.4 0.3-3.3 0.8-0.9 0.5-1.5 1.2-1.5 2.2 0 0.7 0.2 1.3 0.7 1.8 0.5 0.5 1.1 0.9 1.9 1.2 0.8 0.3 1.7 0.6 2.7 0.9 1.1 0.3 2 0.6 2.8 1 0.8 0.4 1.4 0.9 1.9 1.5 0.5 0.6 0.7 1.4 0.7 2.4 0 1-0.3 1.9-0.9 2.6-0.6 0.7-1.4 1.3-2.4 1.7-1 0.4-2.1 0.6-3.4 0.6-1.4 0-2.6-0.2-3.6-0.7-1-0.5-1.8-1.1-2.4-2l1.8-1.4c0.4 0.6 1 1.1 1.7 1.5 0.7 0.4 1.6 0.5 2.5 0.5 1.1 0 2-0.2 2.7-0.7 0.7-0.5 1.1-1.1 1.1-1.9 0-0.7-0.2-1.2-0.7-1.6-0.5-0.4-1.1-0.8-1.9-1.1-0.8-0.3-1.7-0.6-2.7-0.9-1-0.3-1.9-0.7-2.7-1.1-0.8-0.4-1.4-1-1.9-1.6-0.5-0.7-0.7-1.5-0.7-2.5 0-1 0.3-1.8 0.9-2.5 0.6-0.7 1.4-1.2 2.4-1.6 1-0.4 2.1-0.5 3.3-0.5 1.2 0 2.2 0.2 3.1 0.6 0.9 0.4 1.6 1 2.1 1.7l-1.7 1.3z" fill="#C0392B" stroke="#8B1A1A" stroke-width="0.5"/>
</svg>
